<?xml version="1.0" encoding="utf-8"?>
<!-- Generator: Adobe Illustrator 27.7.0, SVG Export Plug-In . SVG Version: 6.00 Build 0)  -->
<svg version="1.1" id="Layer_1" xmlns="http://www.w3.org/2000/svg" xmlns:xlink="http://www.w3.org/1999/xlink" x="0px" y="0px"
	 viewBox="0 0 1070.76 275.07" style="enable-background:new 0 0 1070.76 275.07;" xml:space="preserve">
<style type="text/css">
	.st0{fill:#1919FF;}
	.st1{fill:#060684;}
</style>
<g>
	<path class="st0" d="M260.24,156.33l-81.85-55.35c-22.36-15.12-51.67-15.12-74.04,0l-47.78,32.31l55.58,37.58
		c13.92,9.41,31.88,10.52,46.88,2.88l17.26-8.79l-13.37,14.01c-3.22,3.37-8.12,5.98-11.66,7.58c-5.16,2.33-10.96,3.69-16.76,3.94
		c-0.74,0.03-1.49,0.05-2.24,0.05c-11.76,0-23.65-3.94-35.4-11.73l-53.81-36.39l-20.55,13.9c-11.63,7.86-11.63,24.99,0,32.85
		l91.11,61.61c16.77,11.34,38.76,11.34,55.53,0l91.11-61.61C271.86,181.32,271.86,164.19,260.24,156.33z"/>
	<path class="st1" d="M260.24,156.33l-68.56-46.36l-28.29,10.51l-9.79,63.41l113.37-19.79C265.51,161.1,263.29,158.39,260.24,156.33
		z"/>
	<path class="st0" d="M260.24,115.31l-91.11,61.61c-16.77,11.34-38.76,11.34-55.53,0l-91.11-61.61c-11.63-7.86-11.63-24.99,0-32.85
		l81.85-55.35c22.36-15.12,51.67-15.12,74.04,0l81.85,55.35C271.86,90.33,271.86,107.45,260.24,115.31z"/>
	<g>
		<path d="M321.85,197.88h-23.49V78.04h75.72v22.14h-52.4v29.58h46.65v21.47h-46.48V197.88z"/>
		<path d="M409.4,197.88h-22.48V75.51h22.48V197.88z"/>
		<path d="M431.2,124.7c8.28-8.34,18.68-12.51,31.19-12.51s22.9,4.17,31.19,12.51c8.28,8.34,12.42,18.88,12.42,31.61
			c0,12.73-4.14,23.27-12.42,31.61c-8.28,8.34-18.68,12.51-31.19,12.51s-22.9-4.17-31.19-12.51c-8.28-8.34-12.42-18.87-12.42-31.61
			C418.77,143.57,422.91,133.04,431.2,124.7z M447.42,173.71c4.11,4.17,9.1,6.25,14.96,6.25c5.86,0,10.84-2.08,14.96-6.25
			c4.11-4.17,6.17-9.97,6.17-17.41c0-7.44-2.06-13.24-6.17-17.41c-4.12-4.17-9.1-6.25-14.96-6.25c-5.86,0-10.85,2.09-14.96,6.25
			c-4.12,4.17-6.17,9.97-6.17,17.41C441.25,163.74,443.31,169.55,447.42,173.71z"/>
		<path d="M561.98,114.72h23.66l17.92,53.58l15.38-53.58h22.31l-26.03,83.16h-22.48l-19.44-56.79l-19.1,56.79h-22.82l-26.54-83.16
			h23.66l15.38,53.41L561.98,114.72z"/>
		<path d="M732.53,106.61l-20.96,6.42c-0.79-4.28-2.93-8.17-6.42-11.66c-3.49-3.49-8.62-5.24-15.38-5.24
			c-5.52,0-10.03,1.5-13.52,4.48c-3.49,2.99-5.24,6.57-5.24,10.73c0,7.33,4.34,11.83,13.01,13.52l16.73,3.21
			c10.59,2.03,18.82,6.26,24.68,12.68c5.86,6.42,8.79,13.97,8.79,22.65c0,9.92-3.92,18.57-11.75,25.95
			c-7.83,7.38-18.34,11.07-31.52,11.07c-7.55,0-14.37-1.13-20.45-3.38c-6.09-2.25-10.99-5.27-14.71-9.04
			c-3.72-3.77-6.62-7.78-8.7-12c-2.09-4.23-3.35-8.59-3.8-13.1l21.64-5.75c0.56,6.42,3.07,11.78,7.52,16.06
			c4.45,4.28,10.67,6.42,18.68,6.42c6.09,0,10.84-1.35,14.28-4.06c3.44-2.7,5.15-6.25,5.15-10.65c0-3.49-1.27-6.51-3.8-9.04
			c-2.54-2.54-6.11-4.25-10.73-5.16l-16.73-3.38c-9.69-2.03-17.35-6.03-22.99-12c-5.64-5.97-8.45-13.41-8.45-22.31
			c0-10.59,4.08-19.49,12.25-26.71c8.17-7.21,18-10.82,29.5-10.82c6.87,0,13.02,0.96,18.42,2.87c5.41,1.92,9.75,4.48,13.02,7.69
			c3.27,3.21,5.8,6.51,7.61,9.89C730.44,99.34,731.74,102.89,732.53,106.61z"/>
		<path d="M774.14,89.88v24.85h16.73v19.95h-16.73v34.82c0,3.49,0.79,5.97,2.37,7.44c1.58,1.47,4.06,2.2,7.44,2.2
			c3.04,0,5.35-0.22,6.93-0.68v18.59c-3.27,1.35-7.5,2.03-12.68,2.03c-8.11,0-14.54-2.28-19.27-6.85c-4.73-4.56-7.1-10.84-7.1-18.85
			v-38.71h-15.04v-19.95h4.23c4.17,0,7.35-1.21,9.55-3.63c2.2-2.42,3.3-5.61,3.3-9.55V89.88H774.14z"/>
		<path d="M800.34,175.24c0-7.1,2.31-12.79,6.93-17.07c4.62-4.28,10.59-6.99,17.92-8.11l20.45-3.04c4.17-0.56,6.25-2.54,6.25-5.92
			c0-3.15-1.21-5.75-3.63-7.78c-2.42-2.03-5.89-3.04-10.39-3.04c-4.73,0-8.48,1.3-11.24,3.89c-2.76,2.59-4.31,5.81-4.65,9.63
			l-19.95-4.23c0.79-7.21,4.34-13.58,10.65-19.1c6.31-5.52,14.65-8.28,25.02-8.28c12.39,0,21.52,2.96,27.38,8.87
			c5.86,5.91,8.79,13.49,8.79,22.73v40.91c0,4.96,0.34,9.35,1.01,13.18h-20.62c-0.57-2.48-0.85-5.8-0.85-9.97
			c-5.3,8.23-13.47,12.34-24.51,12.34c-8.56,0-15.47-2.48-20.71-7.44C802.96,187.86,800.34,182,800.34,175.24z M833.63,183.52
			c5.3,0,9.66-1.49,13.1-4.48c3.44-2.98,5.15-7.92,5.15-14.79v-3.72l-18.76,2.87c-6.87,1.01-10.31,4.51-10.31,10.48
			c0,2.7,0.96,4.99,2.87,6.85C827.61,182.59,830.25,183.52,833.63,183.52z"/>
		<path d="M926.8,132.98c-5.97,0-10.99,2.09-15.04,6.26c-4.06,4.17-6.09,9.86-6.09,17.07c0,7.21,2.06,12.93,6.17,17.16
			c4.11,4.23,9.15,6.34,15.13,6.34c5.3,0,9.52-1.38,12.68-4.14c3.15-2.76,5.3-6.06,6.42-9.89l19.77,6.59
			c-2.03,7.66-6.42,14.26-13.18,19.78c-6.76,5.52-15.33,8.28-25.69,8.28c-12.4,0-22.79-4.2-31.18-12.59
			c-8.4-8.39-12.59-18.9-12.59-31.52c0-12.73,4.14-23.27,12.42-31.61c8.28-8.34,18.51-12.51,30.68-12.51
			c10.59,0,19.27,2.73,26.03,8.2c6.76,5.47,11.1,12.08,13.01,19.86l-20.11,6.76C942.52,137.65,936.38,132.98,926.8,132.98z"/>
		<path d="M1056.31,114.72l-33.3,34.99l33.98,48.17h-27.55l-21.97-31.78l-9.3,9.8v21.97h-22.48V75.51h22.48v70.15l28.74-30.93
			H1056.31z"/>
	</g>
</g>
</svg>
